<svg width="32" height="32" viewBox="0 0 32 32" fill="none" xmlns="http://www.w3.org/2000/svg">
<path d="M10.6667 9.33325H6.66667C5.95942 9.33325 5.28115 9.6142 4.78105 10.1143C4.28095 10.6144 4 11.2927 4 11.9999V23.9999C4 24.7072 4.28095 25.3854 4.78105 25.8855C5.28115 26.3856 5.95942 26.6666 6.66667 26.6666H25.3333C26.0406 26.6666 26.7189 26.3856 27.219 25.8855C27.719 25.3854 28 24.7072 28 23.9999V11.9999C28 11.2927 27.719 10.6144 27.219 10.1143C26.7189 9.6142 26.0406 9.33325 25.3333 9.33325H21.3333M20 14.6666L16 18.6666M16 18.6666L12 14.6666M16 18.6666V5.33325" stroke="#212529" stroke-width="1.6" stroke-linecap="round" stroke-linejoin="round"/>
</svg>
