<svg width="32" height="32" viewBox="0 0 32 32" fill="none" xmlns="http://www.w3.org/2000/svg">
<path d="M18.0586 13.9413C16.9664 12.8496 15.4854 12.2363 13.9412 12.2363C12.397 12.2363 10.9161 12.8496 9.82391 13.9413L5.70524 18.0586C4.61308 19.1508 3.99951 20.6321 3.99951 22.1766C3.99951 23.7212 4.61308 25.2025 5.70524 26.2946C6.7974 27.3868 8.27869 28.0003 9.82324 28.0003C11.3678 28.0003 12.8491 27.3868 13.9412 26.2946L15.9999 24.2359" stroke="#212529" stroke-width="1.6" stroke-linecap="round" stroke-linejoin="round"/>
<path d="M13.9414 18.0586C15.0335 19.1503 16.5145 19.7635 18.0587 19.7635C19.6029 19.7635 21.0839 19.1503 22.1761 18.0586L26.2947 13.9412C27.3869 12.8491 28.0005 11.3678 28.0005 9.82324C28.0005 8.27869 27.3869 6.7974 26.2947 5.70524C25.2026 4.61308 23.7213 3.99951 22.1767 3.99951C20.6322 3.99951 19.1509 4.61308 18.0587 5.70524L16.0001 7.76391" stroke="#212529" stroke-width="1.6" stroke-linecap="round" stroke-linejoin="round"/>
</svg>
