<svg width="24" height="24" viewBox="0 0 24 24" fill="none" xmlns="http://www.w3.org/2000/svg">
<path d="M7.98899 3.4995C7.85816 3.63345 7.78491 3.81326 7.78491 4.0005C7.78491 4.18774 7.85816 4.36756 7.98899 4.5015L15.2985 12L7.98899 19.497C7.85816 19.6309 7.78491 19.8108 7.78491 19.998C7.78491 20.1852 7.85816 20.3651 7.98899 20.499C8.05259 20.5643 8.12862 20.6162 8.21261 20.6517C8.29659 20.6871 8.38683 20.7054 8.47799 20.7054C8.56915 20.7054 8.65939 20.6871 8.74338 20.6517C8.82736 20.6162 8.9034 20.5643 8.96699 20.499L16.74 12.5235C16.8765 12.3834 16.9529 12.1956 16.9529 12C16.9529 11.8044 16.8765 11.6166 16.74 11.4765L8.96699 3.501C8.9034 3.43569 8.82736 3.38377 8.74338 3.34833C8.65939 3.31288 8.56915 3.29462 8.47799 3.29462C8.38683 3.29462 8.29659 3.31288 8.21261 3.34833C8.12862 3.38377 8.05259 3.43569 7.98899 3.501V3.4995Z" fill="#212529"/>
</svg>
