<svg width="24" height="24" viewBox="0 0 24 24" fill="none" xmlns="http://www.w3.org/2000/svg">
<path d="M11.457 8.07001L3.49199 16.4295C3.35903 16.569 3.28485 16.7543 3.28485 16.947C3.28485 17.1397 3.35903 17.325 3.49199 17.4645L3.50099 17.4735C3.56545 17.5414 3.64304 17.5954 3.72904 17.6323C3.81504 17.6692 3.90765 17.6883 4.00124 17.6883C4.09483 17.6883 4.18745 17.6692 4.27344 17.6323C4.35944 17.5954 4.43703 17.5414 4.50149 17.4735L12.0015 9.60151L19.4985 17.4735C19.563 17.5414 19.6405 17.5954 19.7265 17.6323C19.8125 17.6692 19.9052 17.6883 19.9987 17.6883C20.0923 17.6883 20.1849 17.6692 20.2709 17.6323C20.3569 17.5954 20.4345 17.5414 20.499 17.4735L20.508 17.4645C20.641 17.325 20.7151 17.1397 20.7151 16.947C20.7151 16.7543 20.641 16.569 20.508 16.4295L12.543 8.07001C12.4729 7.99649 12.3887 7.93796 12.2954 7.89797C12.202 7.85798 12.1015 7.83736 12 7.83736C11.8984 7.83736 11.798 7.85798 11.7046 7.89797C11.6113 7.93796 11.527 7.99649 11.457 8.07001Z" fill="#212529"/>
</svg>
